<svg id="Layer_1" xmlns="http://www.w3.org/2000/svg" viewBox="0 0 500 63.5"><style>.st0{fill:#fff}</style><path class="st0" d="M81.2 45.2l-.8 4.3c-1.6.8-4.7 2-7.3 2.3-5.6 0-10.7-3.8-10.7-10.7 0-7 4.6-10.4 11.3-11.2 3.1 0 5.8 1.4 7.1 2.3v4h-1.6l-1-2.8c-.8-.9-2.5-2-5-2-4.4 0-7.4 3.1-7.4 9 0 4.8 3 9.8 8.2 9.8 1.8 0 3.1-1 3.9-1.7l1.6-3.3h1.7zm5.1-1.6c0 3.4 1.8 5.8 5 5.8 1.2 0 2.6-.6 3.7-1.3l.5 1.1c-1.4 1-3.3 1.8-5.2 2.4-3.6 0-6.9-2.6-6.9-7.3 0-4.4 2.7-6.8 6.7-7.7 3.9 0 5.3 2.5 5.3 5.6v1.3l-9.1.1zm5.9-1.5c0-2.3-.4-3.9-2.7-3.9-1.8 0-3 1.7-3.2 4.2l5.9-.3zm8.4 9.1l-3.4.1-.1-1 2.1-.3V39l-2.1.2-.1-1 3.6-.9 1.3-.1.1 2.5 4.4-2.9c3.8 0 4.4 1.3 4.4 4.9V50l2.3.3-.1 1-3.4-.1-2.9.1-.1-1 1.5-.3v-8.5c0-1.6-.7-2.2-2-2.2-1 0-2.1.7-3.1 1.3l-.9.6V50l1.6.3-.1 1-3-.1zM113 38.9v-.5l1-1h1.9v-1.9l1.9-1.9h.8v4.1h4.5V39h-4.5v8.7c0 .9.3 1.8 1.6 1.8.9 0 1.5-.3 2.4-.7l.5 1-3.5 1.9c-3.3 0-3.8-1.2-3.8-3.9v-8.9H113zm13.5 4.7c0 3.4 1.8 5.8 5 5.8 1.2 0 2.6-.6 3.7-1.3l.5 1.1c-1.4 1-3.3 1.8-5.2 2.4-3.6 0-6.9-2.6-6.9-7.3 0-4.4 2.7-6.8 6.7-7.7 3.9 0 5.3 2.5 5.3 5.6v1.3l-9.1.1zm6-1.5c0-2.3-.4-3.9-2.7-3.9-1.8 0-3 1.7-3.2 4.2l5.9-.3zm9.5-1l3.4-4.2h2.4v3h-2.2c-.7.1-2 1.1-2.8 2.1l-.6.7v7.1l3.1.3-.1 1.1-4.3-.1-3.3.1-.1-1 2.1-.3V39l-2.1.2-.1-1 3.6-.9 1.2-.1-.2 3.9zm19.6-3.6h3.7v1.4h-3.7v11l3.4.2-.1 1.1-4.6-.1-3.4.1-.1-1 2.1-.3v-11h-2.6v-.5l.9-1h1.7v-.3c0-1.8.6-3 1.6-4.2l2.5-2.8h3.8v2.4h-3.9l-.6.8c-.4.6-.6 1.4-.6 3.4l-.1.8zm18.9 6.4c0 4.4-2.7 7-7.3 7.8-4 0-6.7-3.1-6.7-7.1 0-4.5 2.7-7 7.3-7.8 4 0 6.7 3.1 6.7 7.1zm-6.6 6.3c2.4 0 3.6-2.4 3.6-5.7 0-3.8-1.8-6.3-4.4-6.3-2.4 0-3.6 2.4-3.6 5.7-.1 3.4 1.7 6.3 4.4 6.3zm12.9-9.1l3.4-4.2h2.4v3h-2.2c-.7.1-2 1.1-2.8 2.1l-.6.7v7.1l3.1.3-.1 1.1-4.3-.1-3.3.1-.1-1 2.1-.3V39l-2.1.2-.1-1 3.6-.9 1.2-.1-.2 3.9zm14.3-9.7l.1-1 4 .1 5.8-.1c3.7 0 6.6 1.8 6.6 5.3 0 4-3.8 5.9-7.5 6.7h-3.3V50l3.6.4-.1 1-5-.1-4.1.1-.1-1 2.7-.4V31.8l-2.7-.4zm5.8 9.4h2.5c2.8 0 4.8-1.9 4.8-4.8 0-2.6-1.4-4.4-4.5-4.4l-2.8.2v9zm16.2.3l3.4-4.2h2.4v3h-2.2c-.7.1-2 1.1-2.8 2.1l-.6.7v7.1l3.1.3-.1 1.1-4.3-.1-3.3.1-.1-1 2.1-.3V39l-2.1.2-.1-1 3.6-.9 1.2-.1-.2 3.9zm20.9 2.8c0 4.4-2.7 7-7.3 7.8-4 0-6.7-3.1-6.7-7.1 0-4.5 2.7-7 7.3-7.8 4 0 6.7 3.1 6.7 7.1zm-6.6 6.3c2.4 0 3.6-2.4 3.6-5.7 0-3.8-1.8-6.3-4.4-6.3-2.4 0-3.6 2.4-3.6 5.7 0 3.4 1.7 6.3 4.4 6.3zm13.3-12.7h3.7v1.4h-3.7v11l3.4.2-.1 1.1-4.6-.1-3.4.1-.1-1 2.1-.3v-11h-2.6v-.5l.9-1h1.7v-.3c0-1.8.6-3 1.6-4.2l2.5-2.8h3.8v2.4H252l-.6.8c-.4.6-.6 1.4-.6 3.4l-.1.8zm7.8 6.1c0 3.4 1.8 5.8 5 5.8 1.2 0 2.6-.6 3.7-1.3l.5 1.1c-1.4 1-3.3 1.8-5.2 2.4-3.6 0-6.9-2.6-6.9-7.3 0-4.4 2.7-6.8 6.7-7.7 3.9 0 5.3 2.5 5.3 5.6v1.3l-9.1.1zm6-1.5c0-2.3-.4-3.9-2.7-3.9-1.8 0-3 1.7-3.2 4.2l5.9-.3zm13.1-3.2c-.3-.2-1.2-.7-2.3-.7-1.2 0-2.3.6-2.3 1.8 0 1 .7 1.6 2.1 2.2l2.3 1.2c2 1 2.8 2.1 2.8 3.8 0 2.7-2.2 3.7-5.6 4.4-1.8 0-3.8-.9-4.5-1.3l-.6-3.4h1.9l1 2.5c.6.4 1.5.7 2.4.7 1.6 0 2.4-1 2.4-2.3 0-1.2-.6-1.7-2.2-2.5l-2.4-1.2c-1.3-.7-2.5-1.8-2.5-3.5 0-2.1 1.9-3.3 5.4-4 1.6 0 3.3.7 4.2 1.3v3h-1.6l-.5-2zm12.5 0c-.3-.2-1.2-.7-2.3-.7-1.2 0-2.3.6-2.3 1.8 0 1 .7 1.6 2.1 2.2l2.3 1.2c2 1 2.8 2.1 2.8 3.8 0 2.7-2.2 3.7-5.6 4.4-1.8 0-3.8-.9-4.5-1.3L282 47h1.9l1 2.5c.6.4 1.5.7 2.4.7 1.6 0 2.4-1 2.4-2.3 0-1.2-.6-1.7-2.2-2.5l-2.4-1.2c-1.3-.7-2.5-1.8-2.5-3.5 0-2.1 1.9-3.3 5.4-4 1.6 0 3.3.7 4.2 1.3v3h-1.6l-.5-2.1zm8.2 12.3l-3.4.1-.1-1 2.1-.3V39l-2.1.2-.1-1 3.6-.9 1.5-.1V50l2.2.3-.1 1-3.6-.1zm-1.5-20.5l2.1-.1.8.1.1 1.7-.3 1.4-2.1.2-.8-.2-.2-1.7.4-1.4zm20.3 13.2c0 4.4-2.7 7-7.3 7.8-4 0-6.7-3.1-6.7-7.1 0-4.5 2.7-7 7.3-7.8 4 0 6.7 3.1 6.7 7.1zm-6.6 6.3c2.4 0 3.6-2.4 3.6-5.7 0-3.8-1.8-6.3-4.4-6.3-2.4 0-3.6 2.4-3.6 5.7 0 3.4 1.7 6.3 4.4 6.3zm11.8 1l-3.4.1-.1-1 2.1-.3V39l-2.1.2-.1-1 3.6-.9 1.3-.1.1 2.5 4.4-2.9c3.8 0 4.4 1.3 4.4 4.9V50l2.3.3-.1 1-3.4-.1-2.9.1-.1-1 1.5-.3v-8.5c0-1.6-.7-2.2-2-2.2-1 0-2.1.7-3.1 1.3l-.9.6V50l1.6.3-.1 1-3-.1zM342 36.8c3.8 0 4.7 1 4.7 4.7v5.8c0 1.3.2 1.8.5 2.2h1.5l.1 1-3.8.7-.9-2.3-3.6 2.6c-2.6 0-4.4-1.4-4.4-3.8 0-1.1.4-1.9 1-2.7l6.7-2.2v-1.5c0-1.8-.1-2.9-1.8-2.9-.8 0-1.8.3-2.4.5l-.5 2.4h-2.6V39l5.5-2.2zm1.9 7.3l-4.3 1.8c-.4.4-.6 1-.6 1.7 0 1.5.9 2.1 1.7 2.1.8 0 1.6-.5 1.9-.8l1.3-.9v-3.9zm9.7 7.1l-3.4.1-.1-1 2.1-.3V32H350l-.1-1 3.6-.9 1.5-.1v20l2.2.3-.1 1-3.5-.1zm28.2-20.9l.3 5.4h-1l-1.7-3.9-7.9-.1v7.9l4.2-.1 1.2-3.1h1l-.3 3.7.3 4h-1l-1.2-3.1-4.2-.1v9l8.2-.1 2-4h1.1l-1 5.5-11.8-.1-4.1.1-.1-1 2.7-.4V31.8l-2.7-.4.1-1 4.1.1 11.8-.2zm14.9 17.1c0 1.2.2 1.7.5 2.2h1.7l.1 1.1-4 .7-.9-2.3-3.8 2.6c-3.8 0-6.2-2.8-6.2-7 0-4.8 3-7.4 7.3-8 .6 0 1.9.5 2.5.8v-5.6l-2.1.1-.1-1 3.6-.9 1.5-.1v17.4h-.1zm-3.7.7l.9-.7v-7.9c-.7-.7-1.7-1.2-3-1.2-2.4 0-3.9 2.2-3.9 5.7 0 3.3 1.3 5.3 3.1 5.3.8 0 1.8-.4 2.9-1.2zm20.3-.7c0 1.3.1 1.8.4 2.2h1.5l.1 1-3.8.7-.8-2.4-4.3 2.7c-3.9 0-4.6-1.4-4.6-4.9V39l-2.1.1-.1-1.2 3.6-.8 1.5-.1v9.9c0 1.6.7 2.2 2.1 2.2.9 0 2.1-.7 3.3-1.5l.6-.4V39l-1.8.1-.1-1.2 3.3-.8 1.5-.1v10.4h-.3zm11.8-8.6c-.5-.4-.9-.5-1.7-.5-2 0-3.6 2.3-3.6 5.5s1.7 5.6 4.7 5.6c1.1 0 2.3-.6 3.4-1.3l.5 1.1c-1.4 1-2.9 1.7-4.9 2.4-3.8 0-6.7-2.5-6.7-7.1 0-4.7 3.4-6.9 7.1-7.8 1.4 0 3.2.7 4.1 1.5v3h-2.2l-.7-2.4zm10.7-2c3.8 0 4.7 1 4.7 4.7v5.8c0 1.3.2 1.8.5 2.2h1.5l.1 1-3.8.7-.9-2.3-3.6 2.6c-2.6 0-4.4-1.4-4.4-3.8 0-1.1.4-1.9 1-2.7l6.7-2.2v-1.5c0-1.8-.1-2.9-1.8-2.9-.8 0-1.8.3-2.4.5l-.5 2.4h-2.6V39l5.5-2.2zm1.9 7.3l-4.3 1.8c-.4.4-.6 1-.6 1.7 0 1.5.9 2.1 1.7 2.1.8 0 1.6-.5 1.9-.8l1.3-.9v-3.9zm5.1-5.2v-.5l1-1h1.9v-1.9l1.9-1.9h.8v4.1h4.5V39h-4.5v8.7c0 .9.3 1.8 1.6 1.8.9 0 1.5-.3 2.4-.7l.5 1-3.5 1.9c-3.3 0-3.8-1.2-3.8-3.9v-8.9h-2.8zm15 12.3l-3.4.1-.1-1 2.1-.3V39l-2.1.2-.1-1 3.6-.9 1.5-.1V50l2.2.3-.1 1-3.6-.1zm-1.4-20.5l2.1-.1.8.1.1 1.7-.3 1.4-2.1.2-.8-.2-.2-1.7.4-1.4zm20.2 13.2c0 4.4-2.7 7-7.3 7.8-4 0-6.7-3.1-6.7-7.1 0-4.5 2.7-7 7.3-7.8 4 0 6.7 3.1 6.7 7.1zm-6.6 6.3c2.4 0 3.6-2.4 3.6-5.7 0-3.8-1.8-6.3-4.4-6.3-2.4 0-3.6 2.4-3.6 5.7 0 3.4 1.8 6.3 4.4 6.3zm11.8 1l-3.4.1-.1-1 2.1-.3V39l-2.1.2-.1-1 3.6-.9 1.3-.1.1 2.5 4.4-2.9c3.8 0 4.4 1.3 4.4 4.9V50l2.3.3-.1 1-3.4-.1-2.9.1-.1-1 1.5-.3v-8.5c0-1.6-.7-2.2-2-2.2-1 0-2.1.7-3.1 1.3l-.9.6V50l1.6.3-.1 1-3-.1zm-454-28.5zm5.4-4.5c-1.1-.2-2.2-.4-3.2-.4-.5 0-1 .1-1.4.1l-.2-6.3v-1c.4-.2 1-.3 1.7-.3.9 0 1.9.1 3 .3.9.2 1.9.3 2.9.4l.3 7.6c-1.1-.1-2.1-.3-3.1-.4zm-10.8 0c-1 .2-2 .3-3 .4l.3-7.6c1-.1 2-.2 2.9-.3 1.1-.2 2.1-.3 3-.3.7 0 1.2.1 1.7.3v1L27 18c-.4-.1-.9-.1-1.4-.1-1-.1-2.1.1-3.2.3zm16.1-4.5v-1.4h-.9V9.8H37c-1.3 0-2.5-.2-3.7-.4-1.1-.2-2.2-.3-3.1-.3s-1.7.1-2.3.4c-.6-.3-1.4-.4-2.3-.4-1 0-2 .2-3.1.3-1.2.2-2.5.4-3.8.4H18v2.5h-.9v1.4h.9v1.9h-.9V17h.9v2.7h.6c1.4 0 2.7-.2 4-.4 1.1-.2 2.1-.3 3-.3.7 0 1.2.1 1.6.3h1.2c.4-.2.9-.3 1.6-.3.9 0 1.9.2 3 .3 1.3.2 2.6.4 4 .4h.6V17h.9v-1.4h-.9v-1.9h.9z"/><path class="st0" d="M22.6 11.7h-.2c-.6.1-1.1.2-1.7.2v1c.6-.1 1.3-.2 1.9-.3v-.9zm.7-.1v1c1-.1 2-.2 2.8-.2v-1c-.9 0-1.8.1-2.8.2zm-.7 4.5h-.2c-.6.1-1.2.2-1.9.3v1c.7-.1 1.4-.2 2-.3v-1h.1zm.7-.1v1c1-.1 1.8-.2 2.6-.2v-1c-.8 0-1.7.1-2.6.2zm-.9-2.1v1h.1c1.3-.2 2.5-.4 3.4-.3v-1c-1 0-2.2.1-3.5.3zm-.7.1c-.4.1-.7.1-1.1.1v1c.4 0 .8-.1 1.1-.1v-1zm10.2-2.4c-.8-.1-1.6-.2-2.4-.1v1c.7-.1 1.5 0 2.3.1v-1h.1zm3 .4c-.6-.1-1.2-.1-1.7-.2-.2 0-.4-.1-.6-.1v1c.2 0 .3 0 .5.1.6.1 1.2.2 1.9.3l-.1-1.1zm-3.2 1.7c-.7-.1-1.4-.1-2.1-.1v1c.6 0 1.3 0 2.1.1v-1zm3.3.5c-.6-.1-1.2-.2-1.8-.2-.3 0-.5-.1-.8-.1v1c.2 0 .4.1.7.1.6.1 1.3.2 2 .3l-.1-1.1zm-1.9 2.9c.7.1 1.3.2 2 .3v-1c-.6-.1-1.3-.2-1.9-.3h-.1v1zm-.7-1.1c-1-.1-1.9-.2-2.7-.2v1c.8 0 1.7.1 2.7.2v-1zm-5.8 15.5l1.2-3.1 1.2 3.1 3.4.2-2.6 2.2.8 3.3-2.8-1.8-2.8 1.7.8-3.3-2.6-2.2 3.4-.1zM19 30.4l5.4 3.9-2.1 6.4 5.5-4 5.5 4v-.1l-2.1-6.4 5.4-3.9v-.1h-6.8l-2.1-6.4-2.1 6.4-6.6.2c0-.1-.1-.1 0 0-.1-.1-.1 0 0 0z"/><path class="st0" d="M41.3 38.4c-.5.5-1.1.9-1.8 1.1.1-.7.4-1.4.9-1.9s1.1-.9 1.8-1.1c-.1.7-.5 1.4-.9 1.9zm-2.7-4.2c-.1-.7 0-1.5.4-2.1.5.5.8 1.2.9 1.9.1.7 0 1.4-.4 2.1-.5-.5-.8-1.2-.9-1.9zm1.5-5.5c-.1-.7-.1-1.5.2-2.1.5.5.9 1.2 1 1.9.1.7.1 1.4-.2 2.1-.5-.5-.9-1.2-1-1.9zm3.4 1.6c.1.7-.1 1.4-.5 2.1-.4.6-.9 1.1-1.6 1.4-.1-.7.1-1.4.5-2.1.5-.6 1-1.1 1.6-1.4zm-5.3 13.6c-.6.4-1.3.7-2 .7.2-.7.7-1.3 1.3-1.7.6-.4 1.3-.7 2-.7-.2.7-.7 1.3-1.3 1.7zm-1.7-4.6c.1-.7.3-1.4.8-2 .4.6.5 1.3.5 2.1-.1.7-.3 1.4-.8 2-.3-.7-.5-1.4-.5-2.1zm-1.8 4.9c-.2.7-.6 1.3-1.2 1.8-.2-.7-.2-1.4 0-2.1s.6-1.3 1.2-1.8c.1.6.2 1.4 0 2.1zm1 3.1c-.4.6-.9 1.1-1.6 1.4-.5.2-1 .3-1.5.3-.2 0-.4 0-.6-.1.4-.6.9-1.1 1.6-1.4.7-.2 1.4-.3 2.1-.2zm-6.2.3c.3-.6.9-1.2 1.5-1.5.1.7-.1 1.4-.4 2.1-.3.6-.9 1.2-1.5 1.5-.1-.7 0-1.5.4-2.1zm-8.1 1.1c-.7-.3-1.2-.8-1.6-1.4.7-.1 1.4 0 2.1.3s1.2.8 1.6 1.4c-.7.1-1.4 0-2.1-.3zm-.5-4.5c-.2-.7-.2-1.4 0-2.1.6.5 1 1.1 1.2 1.8.2.7.2 1.4 0 2.1-.6-.5-1-1.1-1.2-1.8zm3.6 1.9c.6.3 1.2.8 1.5 1.5.3.6.5 1.4.4 2.1-.6-.3-1.2-.9-1.5-1.5-.3-.7-.4-1.4-.4-2.1zm-7.2-2.2c-.6-.4-1-1-1.3-1.7.7 0 1.4.3 2 .7.6.4 1 1 1.3 1.7-.7 0-1.4-.2-2-.7zm.9-6.6c.5.6.7 1.2.8 2 .1.7-.1 1.4-.5 2.1-.5-.6-.7-1.2-.8-2 0-.8.2-1.5.5-2.1zm-3.9 1.1c-.5-.5-.8-1.2-.9-1.9.7.2 1.3.5 1.8 1.1.5.5.8 1.2.9 1.9-.7-.2-1.3-.5-1.8-1.1zm-.3-4.6c-.7-.3-1.2-.8-1.6-1.4-.3-.6-.4-1.4-.4-2.1.6.3 1.2.8 1.6 1.4.3.7.5 1.4.4 2.1zm.2-5.3c.1-.7.5-1.4 1-1.9.3.7.4 1.4.2 2.1-.1.7-.5 1.4-1 1.9-.2-.7-.3-1.4-.2-2.1zm1.5 5.5c.1-.7.4-1.4.9-1.9.3.6.5 1.4.4 2.1s-.4 1.4-.9 1.9c-.4-.6-.5-1.3-.4-2.1zm25.6.9c1.1-.3 2.1-1.1 2.6-2.1.6-1 .8-2.2.5-3.3l-.1-.5-.5.1c-.6.2-1.1.4-1.5.8.1-.6.1-1.1 0-1.7-.2-1.1-.9-2.1-1.8-2.8l-.5-.2-.3.4c-.6 1-.8 2.2-.6 3.3s.9 2.1 1.8 2.8c-.2.4-.3.8-.3 1.2-.3-.8-.7-1.4-1.4-2l-.4-.3-.3.4c-.7.9-1 2.1-.8 3.3.2 1.1.7 2.2 1.6 2.9-.3.4-.5.7-.6 1.2-.1-.8-.4-1.6-1-2.2l-.3-.4-.4.3c-.9.8-1.4 1.9-1.5 3-.1 1.2.3 2.3 1 3.2-.3.3-.6.6-.8 1 .1-.8-.1-1.6-.5-2.4l-.2-.3-.4.3c-1 .6-1.7 1.5-2.1 2.6-.3 1.1-.2 2.3.3 3.3-.4.2-.7.5-1 .8.2-.8.2-1.6 0-2.4l-.1-.5-.5.3c-1.1.4-2 1.1-2.6 2.2-.5 1-.7 2.1-.4 3.2-.1.1-.3.2-.5.3-.2-.1-.3-.2-.5-.3.3-1.1.1-2.2-.4-3.2-.6-1-1.5-1.8-2.6-2.2l-.5-.2-.1.5c-.2.8-.2 1.6 0 2.4-.3-.3-.7-.6-1-.8.5-1 .6-2.2.3-3.3-.3-1.1-1.1-2.1-2.1-2.6l-.4-.3-.2.5c-.4.7-.5 1.6-.5 2.4-.2-.4-.5-.7-.8-1 .7-.9 1.1-2.1 1-3.2-.1-1.2-.6-2.2-1.5-3l-.4-.3-.3.4c-.5.6-.8 1.4-1 2.2-.1-.4-.4-.8-.6-1.2.9-.7 1.5-1.8 1.6-2.9.1-1.2-.1-2.3-.8-3.3l-.3-.4-.2.1c-.6.5-1.1 1.2-1.4 2l-.3-1.2c.9-.7 1.6-1.7 1.8-2.8.2-1.1 0-2.3-.6-3.3l-.3-.4-.4.3c-.9.7-1.6 1.7-1.8 2.8-.1.6-.1 1.1 0 1.7-.5-.4-1-.6-1.5-.8l-.5-.1-.1.5c-.3 1.1-.1 2.3.5 3.3s1.5 1.7 2.6 2.1l.4.1c0 .4.1.7.3 1.1-.6-.4-1.3-.6-2.1-.7h-.5v.5c0 1.2.4 2.3 1.2 3.1.8.9 1.8 1.4 3 1.5h.5c.1.3.3.7.5 1-.5-.2-1-.3-1.6-.3h-.6l-.5.1.1.5c.2 1.1.9 2.2 1.8 2.8.8.6 1.7.9 2.7.9h.6l.4-.1c.2.3.4.6.7.9-.7-.1-1.5 0-2.2.2l-.5.2.2.5c.5 1.1 1.3 1.9 2.3 2.4.6.3 1.2.4 1.8.4.5 0 1-.1 1.5-.3l.4-.1c.6.5 1.3 1 2.2 1.6-.4.3-.9.6-1.4.9l.9.6c.5-.3 1-.6 1.4-.9.4.3.9.6 1.4.9l.9-.6c-.5-.3-1-.6-1.4-.9.9-.6 1.6-1.1 2.2-1.6l.4.1c.5.2 1 .3 1.5.3.6 0 1.3-.1 1.8-.4 1.1-.5 1.9-1.3 2.3-2.4l.2-.5-.5-.2c-.7-.2-1.5-.3-2.2-.2.3-.3.5-.6.7-.9l.4.1h.6c1 0 1.9-.3 2.7-.9.9-.7 1.6-1.7 1.8-2.8l.1-.5-.5-.1h-.6c-.5 0-1.1.1-1.6.3.2-.3.4-.6.5-1h.4c1.2-.1 2.2-.6 3-1.5s1.2-2 1.2-3.1v-.5h-.5c-.7.1-1.5.3-2.1.7.1-.3.2-.7.3-1.1l.4-.3z"/><path class="st0" d="M41.4 45.1c-1 1.4-2.1 2.8-3.4 4-4.2 3.8-8.8 5.9-10.1 6.5-1.3-.5-6-2.7-10.1-6.5-1.3-1.3-2.5-2.6-3.4-4C9.7 38.2 9.1 30.2 9.1 24L28 22.9 46.9 24c-.2 6.1-.8 14.2-5.5 21.1zM9.9 7.8c3.5-.4 11.4-1.2 17.9-1.2s14.4.8 17.9 1.2l1 13.9H8.9l1-13.9zm38.7-1.6l-.8-.1c-.1 0-11.3-1.4-20-1.4S7.9 6.1 7.8 6.1l-.8.1v17.7c0 6.5.6 14.9 5.7 22.3 1 1.5 2.2 2.9 3.6 4.3 2.7 2.6 6.3 5.1 11.5 8 5.2-2.9 8.8-5.4 11.5-8 1.4-1.4 2.6-2.8 3.6-4.3 5-7.4 5.7-15.8 5.7-22.3V6.2zm29.9 15.5l-1.9.1-.1-.7 1-.2v-5.7c0-1-.5-1.5-1.3-1.5-.6 0-1.4.4-2.1.9l-.5.4v5.9l1.1.2-.1.7-1.9-.1-2.1.1-.1-.7 1.2-.2V8.7l-.7.1-4-.1v12.1l2.3.3-.1.7-3.2-.1-3.3.1-.1-.7 2.4-.3v-12l-3 .1-.9 2.5h-.8V7.9h10.6l2.1-.2h.7V14l2.9-1.9c2.5 0 3 1 3 3.5v5.3l1.5.2-.1.7-2.5-.1zm5.2-5c0 2.3 1.2 3.9 3.3 3.9.8 0 1.8-.4 2.5-.8l.3.8c-1 .7-2.2 1.2-3.5 1.6-2.4 0-4.6-1.7-4.6-4.8 0-2.9 1.8-4.5 4.5-5.1 2.6 0 3.5 1.7 3.5 3.7v.8h-6v-.1zm4-1c0-1.5-.3-2.6-1.8-2.6-1.2 0-2 1.1-2.1 2.8l3.9-.2zm15.8-7.2l.1-.7 2.5.1 2.3-.1.1.7-1.7.3v8.1c0 2.6-1.1 4.3-5 5.2-3.9 0-5.3-2.1-5.3-5.3V8.7l-1.8-.3.1-.7 2.7.1 2.7-.1.1.7-1.7.3v8.4c0 2.5 1.1 3.9 3.3 3.9 2.1 0 3.2-1.4 3.2-3.9V8.8l-1.6-.3zm7.8 13.2l-2.3.1-.1-.7 1.4-.2v-7.3l-1.4.1-.1-.7 2.4-.6.9-.1.1 1.7 2.9-1.9c2.5 0 3 .9 3 3.2v5.5l1.5.2-.1.7-2.3-.1-1.9.1-.1-.7 1-.2v-5.7c0-1-.5-1.5-1.3-1.5-.7 0-1.4.4-2.1.9l-.6.4v5.9l1.1.2-.1.7h-1.9zm11.4 0l-2.3.1-.1-.7 1.4-.2v-7.3l-1.4.1-.1-.7 2.4-.6 1-.1v8.5l1.5.2-.1.7h-2.3zm-1-13.7l1.4-.1.6.1.1 1.1-.2 1-1.4.1-.5-.1-.1-1.1.1-1zm8.9 12.5l2.4-7.2-.9-.2.1-.7 1.8.1 1.7-.1.1.7-1.3.2-3.3 8.2-1.5.6-3.5-8.8-1.2-.2.1-.7 2.3.1 2.1-.1.1.7-1.3.2 2.2 5.8.1 1.4zm7.1-3.8c0 2.3 1.2 3.9 3.3 3.9.8 0 1.8-.4 2.5-.8l.3.8c-1 .7-2.2 1.2-3.5 1.6-2.4 0-4.6-1.7-4.6-4.8 0-2.9 1.8-4.5 4.5-5.1 2.6 0 3.5 1.7 3.5 3.7v.8h-6v-.1zm4-1c0-1.5-.3-2.6-1.8-2.6-1.2 0-2 1.1-2.1 2.8l3.9-.2zm6.5-.7l2.3-2.8h1.6v2h-1.5c-.5.1-1.4.8-1.9 1.4l-.4.5v4.7l2.1.2-.1.8-2.9-.1-2.2.1-.1-.7 1.4-.2v-7.3l-1.4.1-.1-.7 2.4-.6.8-.1V15zm10.1-1.5c-.2-.1-.8-.4-1.5-.4-.8 0-1.5.4-1.5 1.2 0 .6.5 1 1.4 1.5l1.5.8c1.3.7 1.9 1.4 1.9 2.6 0 1.8-1.5 2.5-3.7 3-1.2 0-2.5-.6-3-.9l-.4-2.2h1.3l.7 1.7c.4.3 1 .5 1.6.5 1.1 0 1.6-.7 1.6-1.5s-.4-1.1-1.5-1.7l-1.6-.8c-.9-.4-1.7-1.2-1.7-2.3 0-1.4 1.3-2.2 3.6-2.7 1.1 0 2.2.5 2.8.9v2h-1.1l-.4-1.7zm5.5 8.2l-2.3.1-.1-.7 1.4-.2v-7.3l-1.4.1-.1-.7 2.4-.6 1-.1v8.5l1.5.2-.1.7h-2.3zm-1-13.7l1.4-.1.6.1.1 1.1-.2 1-1.4.1-.5-.1-.1-1.1.1-1zm10.9 18.4v-2h1.7l2-3-.8.2-3.3-8.4h-3v6.1c0 .6.2 1.2 1.1 1.2.6 0 1.2-.3 1.8-.6l.3.7L171 22c-2.2 0-2.5-.8-2.5-2.6v-5.9h-1.9v-.3l.7-.7h1.3v-1.3l1.3-1.3h.5v2.5h6.3l.1.7-1.3.2 2.2 5.8.2 1.4 2.5-7.2-.9-.2.1-.7 1.8.1 1.7-.1.1.7-1.3.2-3.2 8.1-2.2 5h-2.8zm22.2-9.5c0 3-1.8 4.7-4.9 5.2-2.6 0-4.4-2-4.4-4.8 0-3 1.8-4.7 4.9-5.2 2.6 0 4.4 2.1 4.4 4.8zm-4.4 4.2c1.6 0 2.4-1.6 2.4-3.8 0-2.5-1.2-4.2-2.9-4.2-1.6 0-2.4 1.6-2.4 3.8s1.1 4.2 2.9 4.2zm8.9-8.5h2.5v.9h-2.5v7.3l2.3.1-.1.8-3.1-.1-2.3.1-.1-.7 1.4-.2v-7.3h-1.8v-.3l.6-.7h1.2v-.2c0-1.2.4-2 1.1-2.8l1.7-1.9h2.5v1.6h-2.6l-.4.5c-.3.4-.4 1-.4 2.2v.7zm17.7 9.2l-3.2-.1-3.3.1-.1-.7 2.4-.3v-12h-3l-.9 2.5h-.8V7.8l5.7.1 5.7-.1v3.5h-.8l-.9-2.5h-3v12.1l2.3.3-.1.6zm3.5-5.1c0 2.3 1.2 3.9 3.3 3.9.8 0 1.8-.4 2.5-.8l.3.8c-1 .7-2.2 1.2-3.5 1.6-2.4 0-4.6-1.7-4.6-4.8 0-2.9 1.8-4.5 4.5-5.1 2.6 0 3.5 1.7 3.5 3.7v.8h-6v-.1zm4-1c0-1.5-.3-2.6-1.8-2.6-1.2 0-2 1.1-2.1 2.8l3.9-.2zm6.6 5.4l-.1.7-1.6-.1-2 .1-.1-.7 1.4-.2 2.9-3.6-2.9-4-1.2-.2.1-.7 2.3.1 1.9-.1.1.7-.8.2 1.5 2.2.2.5 1.9-2.7-1-.2.1-.7 1.6.1 2-.1.1.7-1.4.2-2.6 3.2 3.1 4.4 1.2.2-.1.7-2.3-.1-1.9.1-.1-.7.8-.2-1.8-2.6-.2-.5-2.1 3 1 .3zm11.3-9c2.5 0 3.1.6 3.1 3.2v3.9c0 .9.1 1.2.3 1.5h1l.1.7-2.6.5-.6-1.5-2.4 1.7c-1.7 0-2.9-1-2.9-2.5 0-.7.3-1.2.7-1.8l4.5-1.5v-1c0-1.2-.1-1.9-1.2-1.9-.5 0-1.2.2-1.6.4l-.3 1.6h-1.7v-1.5l3.6-1.8zm1.3 4.9l-2.9 1.2c-.3.3-.4.7-.4 1.1 0 1 .6 1.4 1.2 1.4s1-.3 1.3-.5l.8-.6V17zm9.4-3.5c-.2-.1-.8-.4-1.5-.4-.8 0-1.5.4-1.5 1.2 0 .6.5 1 1.4 1.5l1.5.8c1.3.7 1.9 1.4 1.9 2.6 0 1.8-1.5 2.5-3.7 3-1.2 0-2.5-.6-3-.9l-.4-2.2h1.3l.7 1.7c.4.3 1 .5 1.6.5 1.1 0 1.6-.7 1.6-1.5s-.4-1.1-1.5-1.7l-1.6-.8c-.9-.4-1.7-1.2-1.7-2.3 0-1.4 1.3-2.2 3.6-2.7 1.1 0 2.2.5 2.8.9v2h-1.1l-.4-1.7zm11.8-1.4c2.5 0 3.1.6 3.1 3.2v3.9c0 .9.1 1.2.3 1.5h1l.1.7-2.6.5-.6-1.5-2.4 1.7c-1.7 0-2.9-1-2.9-2.5 0-.7.3-1.2.7-1.8l4.5-1.5v-1c0-1.2-.1-1.9-1.2-1.9-.5 0-1.2.2-1.6.4l-.3 1.6h-1.7v-1.5l3.6-1.8zm1.3 4.9l-2.9 1.2c-.3.3-.4.7-.4 1.1 0 1 .6 1.4 1.2 1.4s1-.3 1.3-.5l.8-.6V17zm3.2-3.5v-.3l.7-.7h1.3v-1.3l1.3-1.3h.5v2.7h3v.9h-3v5.8c0 .6.2 1.2 1.1 1.2.6 0 1-.2 1.6-.5l.3.7L275 22c-2.2 0-2.5-.8-2.5-2.6v-5.9h-2zm15.2 3.6l-1.3 3.7 1.7.3-.1.7-2.4-.1-2.1.1-.1-.7 1.6-.2L287.9 8l1.2-.3 5.2 13.2 1.6.2-.1.7-2.7-.1-2.6.1-.1-.7 1.7-.3-1.4-3.7h-5zm2.6-6.2l-.1-1.1-2.2 6.3h4.2l-1.9-5.2zm16 8.3c0 .9.1 1.2.2 1.5h1l.1.7-2.6.5-.6-1.6-2.9 1.8c-2.6 0-3.1-.9-3.1-3.2v-5.2l-1.4.1-.1-.8 2.4-.5 1-.1V19c0 1 .4 1.5 1.4 1.5.6 0 1.4-.5 2.2-1l.4-.3v-5.6l-1.2.1-.1-.8 2.2-.5 1-.1v6.9h.1zm7.6-5.7c-.2-.1-.8-.4-1.5-.4-.8 0-1.5.4-1.5 1.2 0 .6.5 1 1.4 1.5l1.5.8c1.3.7 1.9 1.4 1.9 2.6 0 1.8-1.5 2.5-3.7 3-1.2 0-2.5-.6-3-.9l-.4-2.2h1.3l.7 1.7c.4.3 1 .5 1.6.5 1.1 0 1.6-.7 1.6-1.5s-.4-1.1-1.5-1.7l-1.6-.8c-.9-.4-1.7-1.2-1.7-2.3 0-1.4 1.3-2.2 3.6-2.7 1.1 0 2.2.5 2.8.9v2h-1.1l-.4-1.7zm2.4 0v-.3l.7-.7h1.3v-1.3l1.3-1.3h.5v2.7h3v.9h-3v5.8c0 .6.2 1.2 1.1 1.2.6 0 1-.2 1.6-.5l.3.7-2.3 1.3c-2.2 0-2.5-.8-2.5-2.6v-5.9h-2zm10.3 8.2l-2.3.1-.1-.7 1.4-.2v-7.3l-1.4.1-.1-.7 2.4-.6 1-.1v8.5l1.5.2-.1.7h-2.3zm-1-13.7l1.4-.1.6.1.1 1.1-.2 1-1.4.1-.5-.1-.1-1.1.1-1zm6.7 13.7l-2.3.1-.1-.7 1.4-.2v-7.3l-1.4.1-.1-.7 2.4-.6.9-.1.1 1.7 2.9-1.9c2.5 0 3 .9 3 3.2v5.5l1.5.2-.1.7-2.3-.1-1.9.1-.1-.7 1-.2v-5.7c0-1-.5-1.5-1.3-1.5-.7 0-1.4.4-2.1.9l-.6.4v5.9l1.1.2-.1.7h-1.9z"/></svg>